# AST/ASF file generated using VICON BodyLanguage
# -----------------------------------------------
:version 1.10
:name VICON
:units
  mass 1.0
  length 0.45
  angle deg
:documentation
   .ast/.asf automatically generated from VICON data using
   VICON BodyBuilder and BodyLanguage model FoxedUp or BRILLIANT.MOD
:root
   order TX TY TZ RX RY RZ
   axis XYZ
   position 0 0 0  
   orientation 0 0 0 
:bonedata
  begin
     id 1 
     name lhipjoint
     direction 0.661853 -0.702389 0.261917 
     length 2.64193 
     axis 0 0 0  XYZ
  end
  begin
     id 2 
     name lfemur
     direction 0.34202 -0.939693 0  
     length 7.01722  
     axis 0 0 20  XYZ
    dof rx ry rz
    limits (-160.0 20.0)
           (-70.0 70.0)
           (-60.0 70.0)
  end
  begin
     id 3 
     name ltibia
     direction 0.34202 -0.939693 0   
     length 8.25008   
     axis 0 0 20   XYZ
    dof rx
    limits (-10.0 170.0)
  end
  begin
     id 4 
     name lfoot
     direction 0.0709916 -0.195048 0.978221   
     length 2.31941   
     axis -90 7.62852e-016 20   XYZ
    dof rx rz
    limits (-45.0 90.0)
           (-70.0 20.0)
  end
  begin
     id 5 
     name ltoes
     direction 1.53586e-011 -4.22017e-011 1   
     length 1.16486   
     axis -90 7.62852e-016 20   XYZ
    dof rx
    limits (-90.0 20.0)
  end
  begin
     id 6 
     name rhipjoint
     direction -0.638185 -0.721362 0.268992   
     length 2.57244  
     axis 0 0 0  XYZ 
  end
  begin
     id 7 
     name rfemur
     direction -0.34202 -0.939693 0   
     length 7.07017   
     axis 0 0 -20   XYZ
    dof rx ry rz
    limits (-160.0 20.0)
           (-70.0 70.0)
           (-70.0 60.0)
  end
  begin
     id 8 
     name rtibia
     direction -0.34202 -0.939693 0   
     length 8.20386   
     axis 0 0 -20   XYZ
    dof rx
    limits (-10.0 170.0)
 end
 begin
     id 9 
     name rfoot
     direction -0.0822429 -0.225961 0.970658   
     length 2.32215  
     axis -90 -7.62852e-016 -20   XYZ
    dof rx rz
    limits (-45.0 90.0)
           (-20.0 70.0)
  end
  begin
     id 10 
     name rtoes
     direction -1.53597e-011 -4.21689e-011 1   
     length 1.16333   
     axis -90 -7.62852e-016 -20   XYZ
    dof rx
    limits (-90.0 20.0)
  end
  begin
     id 11 
     name lowerback
     direction -0.0131557 0.998589 -0.0514484   
     length 2.14993   
     axis 0 0 0   XYZ
    dof rx ry rz
    limits (-20.0 45.0)
           (-30.0 30.0)
           (-30.0 30.0)
  end
  begin
     id 12 
     name upperback
     direction -0.000776481 0.999993 0.00352685   
     length 2.15301   
     axis 0 0 0   XYZ
    dof rx ry rz
    limits (-20.0 45.0)
           (-30.0 30.0)
           (-30.0 30.0)
  end
  begin
     id 13 
     name thorax
     direction 0.00438186 0.999609 0.0276143   
     length 2.15424   
     axis 0 0 0   XYZ
    dof rx ry rz
    limits (-20.0 45.0)
           (-30.0 30.0)
           (-30.0 30.0)
  end
  begin
     id 14 
     name lowerneck
     direction -0.0488006 0.998094 0.0377807   
     length 1.90481   
     axis 0 0 0   XYZ
    dof rx ry rz
    limits (-20.0 45.0)
           (-30.0 30.0)
           (-30.0 30.0)
  end
  begin
     id 15 
     name upperneck
     direction 0.0443769 0.990702 -0.12861   
     length 1.91305   
     axis 0 0 0   XYZ
    dof rx ry rz
    limits (-20.0 45.0)
           (-30.0 30.0)
           (-30.0 30.0)
  end
  begin
     id 16
     name head
     direction 0.0165599 0.998647 -0.0492982  
     length 1.92369  
     axis 0 0 0   XYZ
    dof rx ry rz
    limits (-20.0 45.0)
           (-30.0 30.0)
           (-30.0 30.0)
  end
  begin
     id 17 
     name lclavicle
     direction 0.911936 0.410197 -0.0105506  
     length 3.52622  
     axis 0 0 0   XYZ
    dof ry rz
    limits (-20.0 10.0)
           (0.0 20.0)
  end
  begin
     id 18 
     name lhumerus
     direction 1 -4.48974e-011 -2.48591e-028   
     length 5.47651   
     axis 180 -30 -90   XYZ
    dof rx ry rz
    limits (-60.0 90.0)
           (-90.0 90.0)
           (-90.0 90.0)
  end
  begin
     id 19
     name lradius
     direction 1 -4.48938e-011 -4.40099e-027   
     length 3.09058   
     axis 180 -30 -90   XYZ
    dof rx
    limits (-10.0 170.0)
  end
  begin
     id 20
     name lwrist
     direction 1 -4.49042e-011 -2.99852e-027   
     length 1.54529   
     axis 1.95339e-015 90 90   XYZ
    dof ry
    limits (-180.0 0.0)
 end
  begin
     id 21 
     name lhand
     direction 1 -4.48815e-011 -5.98193e-027   
     length 0.771611   
     axis 3.82337e-015 90 90   XYZ
    dof rx rz
    limits (-90.0 90.0)
           (-45.0 45.0)
  end
  begin
     id 22 
     name lfingers
     direction 1 -4.49034e-011 -1.1993e-026   
     length 0.622093   
     axis 7.64668e-015 90 90   XYZ
    dof rx
    limits (0.0 90.0)
  end
  begin
     id 23
     name lthumb
     direction 0.707107 -6.34867e-011 0.707107   
     length 0.893204   
     axis -90 45 -1.62303e-014   XYZ
    dof rx rz
    limits (-45.0 45.0)
           (-45.0 45.0)
  end
  begin
     id 24 
     name rclavicle
     direction -0.93442 0.355634 -0.0195692   
     length 3.62463  
     axis 0 0 0   XYZ 
    dof ry rz
    limits (-10.0 20.0)
           (-20.0 0.0)
  end
  begin
     id 25 
     name rhumerus
     direction -1 -4.48957e-011 -1.19147e-027  
     length 5.14182   
     axis 180 30 90   XYZ
    dof rx ry rz
    limits (-90.0 60.0)
           (-90.0 90.0)
           (-90.0 90.0)
  end
  begin
     id 26 
     name rradius
     direction -1 -4.48952e-011 -3.81062e-027   
     length 3.35565   
     axis 180 30 90   XYZ
    dof rx
    limits (-10.0 170.0)
  end
  begin
     id 27 
     name rwrist
     direction -1 -4.48973e-011 -2.99621e-027   
     length 1.67782   
     axis 1.95339e-015 -90 -90   XYZ
    dof ry
    limits (-180.0 0.0)
  end
  begin
     id 28
     name rhand
     direction -1 -4.48895e-011 -5.98727e-027   
     length 0.801042   
     axis 3.82337e-015 -90 -90   XYZ
    dof rx rz
    limits (-90.0 90.0)
           (-45.0 45.0)
  end
  begin
     id 29
     name rfingers
     direction -1 -4.49065e-011 -1.19972e-026   
     length 0.645821   
     axis 7.64668e-015 -90 -90   XYZ
    dof rx
    limits (0.0 90.0)
  end
  begin
     id 30
     name rthumb
     direction -0.707107 -6.34957e-011 0.707107   
     length 0.927273   
     axis -90 -45 1.62303e-014   XYZ
    dof rx rz
    limits (-45.0 45.0)
           (-45.0 45.0)
  end
:hierarchy
  begin
    root lhipjoint rhipjoint lowerback
    lhipjoint lfemur
    lfemur ltibia
    ltibia lfoot
    lfoot ltoes
    rhipjoint rfemur
    rfemur rtibia
    rtibia rfoot
    rfoot rtoes
    lowerback upperback
    upperback thorax
    thorax lowerneck lclavicle rclavicle
    lowerneck upperneck
    upperneck head
    lclavicle lhumerus
    lhumerus lradius
    lradius lwrist
    lwrist lhand lthumb
    lhand lfingers
    rclavicle rhumerus
    rhumerus rradius
    rradius rwrist
    rwrist rhand rthumb
    rhand rfingers
  end

#!OML:ASF E:\Style4\Style4.ASF
:FULLY-SPECIFIED
:DEGREES
117
root -0.320649 17.9192 -2.5451 5.12466 -0.910007 1.33166
lowerback 9.68256 1.95104 -0.851331
upperback 4.72692 2.50718 -0.0348142
thorax -0.554625 1.23836 0.192185
lowerneck -0.0906776 -4.53203 -6.72026
upperneck 1.97214 -6.0974 5.36644
head 1.04387 -3.05606 2.80854
rclavicle -4.77083e-015 -2.5842e-015
rhumerus -36.9773 55.1415 -97.9699
rradius 107.072
rwrist -45.6961
rhand -23.2371 25.172
rfingers 7.12502
rthumb 3.2141 -4.78352
lclavicle -4.77083e-015 -2.5842e-015
lhumerus -37.6007 -58.4109 102.771
lradius 108.819
lwrist 44.5673
lhand -12.0926 27.6575
lfingers 7.12502
lthumb 13.9678 57.1683
rfemur -20.1776 1.78944 17.4597
rtibia 30.4586
rfoot -14.6026 -12.6883
rtoes -9.16111
lfemur -17.1259 0.280174 -20.2604
ltibia 28.8003
lfoot -16.9833 10.8346
ltoes -14.2132
118
root -0.317364 17.9176 -2.5527 5.08118 -0.859057 1.33301
lowerback 9.72466 1.90648 -0.814966
upperback 4.71808 2.45106 -0.0218522
thorax -0.585333 1.21088 0.189158
lowerneck -0.0911729 -4.52845 -6.72408
upperneck 1.93069 -6.09145 5.36262
head 1.03027 -3.053 2.80846
rclavicle 2.64384e-014 -3.57812e-015
rhumerus -36.4385 55.2702 -97.5274
rradius 107.18
rwrist -46.0591
rhand -23.1831 24.6033
rfingers 7.12502
rthumb 3.26632 -5.35143
lclavicle 2.64384e-014 -3.57812e-015
lhumerus -37.1758 -58.4297 102.374
lradius 109.095
lwrist 44.6711
lhand -12.796 27.9751
lfingers 7.12502
lthumb 13.2898 57.5314
rfemur -20.1595 1.70492 17.4566
rtibia 30.4796
rfoot -14.5806 -12.6619
rtoes -9.31093
lfemur -17.1229 0.237757 -20.2711
ltibia 28.8224
lfoot -16.9511 10.8222
ltoes -14.1962
119
root -0.31457 17.9169 -2.55903 5.01032 -0.840843 1.42272
lowerback 9.77886 1.90463 -0.858452
upperback 4.72361 2.44401 -0.0405646
thorax -0.610075 1.20698 0.19315
lowerneck -0.111897 -4.57003 -6.71981
upperneck 1.88395 -6.14461 5.36077
head 1.02219 -3.07911 2.80583
rclavicle 3.45885e-014 -1.74931e-014
rhumerus -35.9143 55.31 -97.0466
rradius 107.212
rwrist -46.1895
rhand -23.0774 24.479
rfingers 7.12502
rthumb 3.36839 -5.47418
lclavicle 3.45885e-014 -1.74931e-014
lhumerus -36.7829 -58.4695 102.029
lradius 109.229
lwrist 44.7288
lhand -13.0557 28.1058
lfingers 7.12502
lthumb 13.0395 57.6782
rfemur -20.1202 1.65444 17.3478
rtibia 30.5086
rfoot -14.5587 -12.6304
rtoes -9.4779
lfemur -17.0797 0.169891 -20.3814
ltibia 28.844
lfoot -16.9637 10.8963
ltoes -14.1852
120
root -0.31318 17.9159 -2.56487 4.97284 -0.845835 1.38737
lowerback 9.80308 1.90919 -0.783403
upperback 4.7223 2.45631 -0.0338878
thorax -0.622015 1.21416 0.155898
lowerneck -0.175285 -4.60328 -6.70981
upperneck 1.89669 -6.1854 5.34828
head 1.0392 -3.09876 2.79721
rclavicle -1.77912e-014 1.11319e-014
rhumerus -35.3946 55.3761 -96.621
rradius 107.147
rwrist -46.1723
rhand -23.1969 24.6981
rfingers 7.12502
rthumb 3.25291 -5.25685
lclavicle -1.77912e-014 1.11319e-014
lhumerus -36.3761 -58.5201 101.657
lradius 109.237
lwrist 44.6971
lhand -13.0938 27.9703
lfingers 7.12502
lthumb 13.0028 57.5451
rfemur -20.1161 1.64254 17.384
rtibia 30.5407
rfoot -14.5396 -12.6123
rtoes -9.60844
lfemur -17.0807 0.150383 -20.3464
ltibia 28.8733
lfoot -16.9686 10.9266
ltoes -14.1964
121
root -0.312325 17.9146 -2.56974 4.95119 -0.885455 1.35754
lowerback 9.81237 1.91745 -0.745464
upperback 4.71294 2.47058 -0.0162724
thorax -0.636147 1.22166 0.150822
lowerneck -0.254144 -4.61243 -6.72789
upperneck 1.92288 -6.19385 5.36414
head 1.06333 -3.10212 2.80353
rclavicle -4.67144e-015 -7.95139e-016
rhumerus -34.9053 55.5683 -96.1971
rradius 107.105
rwrist -46.1816
rhand -23.3935 24.9245
rfingers 7.12502
rthumb 3.06305 -5.0332
lclavicle -4.67144e-015 -7.95139e-016
lhumerus -35.9153 -58.5415 101.28
lradius 109.206
lwrist 44.679
lhand -13.2414 27.7213
lfingers 7.12502
lthumb 12.8605 57.3051
rfemur -20.1445 1.65164 17.4137
rtibia 30.5783
rfoot -14.5199 -12.5904
rtoes -9.67037
lfemur -17.1004 0.178173 -20.3139
ltibia 28.9243
lfoot -17.0222 10.8851
ltoes -13.8467
122
root -0.312088 17.912 -2.57646 4.93582 -0.909902 1.39375
lowerback 9.84447 1.93944 -0.778127
upperback 4.68723 2.49646 -0.00909417
thorax -0.682232 1.23415 0.17212
lowerneck -0.232481 -4.62959 -6.75413
upperneck 1.89019 -6.21787 5.40106
head 1.05313 -3.11421 2.82112
rclavicle -3.12092e-014 -3.97569e-016
rhumerus -34.5074 55.7299 -95.8083
rradius 107.132
rwrist -46.1775
rhand -23.599 25.1166
rfingers 7.12502
rthumb 2.86465 -4.84389
lclavicle -3.12092e-014 -3.97569e-016
lhumerus -35.5335 -58.5976 101.019
lradius 109.15
lwrist 44.6482
lhand -13.2146 27.5431
lfingers 7.12502
lthumb 12.8863 57.1252
rfemur -20.1889 1.66864 17.3713
rtibia 30.6231
rfoot -14.5222 -12.6071
rtoes -9.71356
lfemur -17.1379 0.186722 -20.3553
ltibia 28.9885
lfoot -17.0233 10.8397
ltoes -13.5451
123
root -0.31232 17.9086 -2.58437 4.90461 -0.941156 1.39939
lowerback 9.89608 1.95551 -0.786481
upperback 4.65194 2.51645 0.00572003
thorax -0.748201 1.24403 0.18734
lowerneck -0.135329 -4.61787 -6.77046
upperneck 1.87038 -6.20754 5.4095
head 1.02999 -3.11026 2.8298
rclavicle 6.95746e-015 4.37326e-015
rhumerus -34.1918 55.8687 -95.5013
rradius 107.134
rwrist -46.1112
rhand -23.6617 25.1174
rfingers 7.12502
rthumb 2.80411 -4.84393
lclavicle 6.95746e-015 4.37326e-015
lhumerus -35.2341 -58.6384 100.777
lradius 109.133
lwrist 44.6307
lhand -13.0959 27.5448
lfingers 7.12502
lthumb 13.0008 57.1197
rfemur -20.2185 1.66414 17.3728
rtibia 30.6752
rfoot -14.4925 -12.6091
rtoes -9.70197
lfemur -17.1705 0.197444 -20.3594
ltibia 29.0625
lfoot -16.9951 10.8222
ltoes -13.5469
124
root -0.31271 17.9058 -2.58937 4.8693 -0.962041 1.40013
lowerback 9.91159 1.96178 -0.802551
upperback 4.64089 2.52344 0.027388
thorax -0.769846 1.24715 0.217118
lowerneck -0.0824656 -4.61404 -6.79337
upperneck 1.83681 -6.20477 5.41906
head 1.01102 -3.10952 2.83896
rclavicle -2.5345e-014 7.95139e-015
rhumerus -33.8961 56.0395 -95.2207
rradius 107.1
rwrist -45.959
rhand -23.7041 25.0563
rfingers 7.12502
rthumb 2.76312 -4.90556
lclavicle -2.5345e-014 7.95139e-015
lhumerus -34.8272 -58.6681 100.439
lradius 109.082
lwrist 44.4449
lhand -12.8885 27.6654
lfingers 7.12502
lthumb 13.2007 57.2275
rfemur -20.2294 1.6896 17.3683
rtibia 30.7433
rfoot -14.5629 -12.5832
rtoes -9.35265
lfemur -17.1832 0.221215 -20.3597
ltibia 29.138
lfoot -16.9994 10.8408
ltoes -14.057
125
root -0.312518 17.9038 -2.59338 4.85203 -0.978325 1.39585
lowerback 9.89152 1.97689 -0.799794
upperback 4.64465 2.54408 0.0378174
thorax -0.755564 1.25734 0.224976
lowerneck -0.0849438 -4.65557 -6.8134
upperneck 1.79575 -6.26021 5.4774
head 1.00511 -3.13681 2.86148
rclavicle -4.67144e-015 7.95139e-016
rhumerus -33.5336 56.2062 -94.8634
rradius 107.067
rwrist -45.9784
rhand -23.7075 25.2053
rfingers 7.12502
rthumb 2.75986 -4.75663
lclavicle -4.67144e-015 7.95139e-016
lhumerus -34.4432 -58.6793 100.094
lradius 109.027
lwrist 44.076
lhand -12.5467 27.7624
lfingers 7.12502
lthumb 13.5301 57.3028
rfemur -20.2635 1.68855 17.3727
rtibia 30.8169
rfoot -14.6108 -12.5697
rtoes -9.3322
lfemur -17.2224 0.268068 -20.357
ltibia 29.2245
lfoot -16.9916 10.8657
ltoes -14.434
